<svg width="32" height="33" viewBox="0 0 32 33" fill="none" xmlns="http://www.w3.org/2000/svg">
<g clip-path="url(#clip0_2006_14)">
<path d="M14.1549 10.3529L21.5628 2.84143L29.2186 10.6624L21.8107 18.202L14.1549 10.3529Z" fill="white"/>
<path d="M13.5216 9.17135C13.0809 9.62148 12.3374 9.62148 11.8968 9.17135L11.8417 9.11509C11.4286 8.69309 11.4562 8.04603 11.7591 7.53964C13.5766 4.58568 16.6334 1.54731 18.9192 0.225063C19.4424 -0.0562665 20.0482 -0.112532 20.4613 0.309462L20.5439 0.393861C20.9846 0.843989 20.9846 1.57545 20.5439 2.02557L13.5216 9.17135Z" fill="white"/>
<path d="M22.9949 18.8491C22.5543 19.2992 22.5543 20.0588 22.9949 20.509L23.05 20.5652C23.4631 20.9872 24.0964 20.9591 24.5921 20.6496C27.4562 18.7928 30.4854 15.6982 31.7797 13.3632C32.0551 12.8568 32.1102 12.2379 31.6971 11.8159L31.6145 11.7315C31.1739 11.2813 30.4579 11.2813 30.0173 11.7315L22.9949 18.8491Z" fill="white"/>
<path d="M0.881239 31.6496C0.743546 31.5652 0.688468 31.4245 0.550775 31.312C0.192771 30.8056 0 30.1867 0 29.5678C0.0275387 28.78 0.358003 28.0486 0.908778 27.5422L15.8623 14.0665L17.0465 15.2199L18.1756 16.4297L4.90189 31.6215C4.37866 32.1841 3.66265 32.5217 2.91911 32.5499C2.28571 32.578 1.67986 32.3529 1.18417 31.9872C1.10155 31.8465 0.936317 31.7903 0.881239 31.6496Z" fill="white"/>
<path d="M13.7693 26.9514L12.9156 27.9361V28.977H12.117L11.043 30.0742V33H31.4492V30.0742L30.3752 28.977H29.5765V27.9361L28.6953 26.9514H13.7693Z" fill="white"/>
</g>
<defs>
<clipPath id="clip0_2006_14">
<rect width="32" height="33" fill="white"/>
</clipPath>
</defs>
</svg>
