<svg width="30" height="46" viewBox="0 0 30 46" fill="none" xmlns="http://www.w3.org/2000/svg">
<g clip-path="url(#clip0_2007_67)">
<path d="M23.0979 19.7193C20.7403 16.9272 19.8177 13.9256 19.8177 13.9256H10.1822C10.1822 13.9256 9.05463 17.346 6.90201 19.7193C4.40771 22.5114 -2.90437 30.2944 1.29837 39.5432C3.72433 44.9181 11.2414 46.0698 15 45.9651C18.7585 46.0698 26.2756 44.9181 28.7016 39.5432C32.9043 30.2944 25.8656 23 23.0979 19.7193ZM16.025 39.1593V41.8467H13.4965V39.3338C11.7539 39.264 10.0797 38.7754 9.12297 38.217L9.90884 35.1457C11.0022 35.739 12.5057 36.2974 14.1799 36.2974C15.6492 36.2974 16.6401 35.7041 16.6401 34.6571C16.6401 33.6449 15.82 33.0167 13.9066 32.3536C11.1389 31.4112 9.25964 30.085 9.25964 27.5372C9.25964 25.2337 10.8656 23.4188 13.6332 22.8604V20.3475H16.1617V22.651C17.9043 22.7208 19.066 23.1047 19.8861 23.5235L19.1344 26.525C18.451 26.2458 17.2893 25.6176 15.41 25.6176C13.7357 25.6176 13.189 26.3505 13.189 27.0835C13.189 27.956 14.0774 28.5144 16.2984 29.352C19.3735 30.4689 20.6036 31.8998 20.6036 34.2731C20.6036 36.6115 18.9635 38.6358 16.025 39.1593Z" fill="white"/>
<path d="M10.5239 9.87709C10.0797 9.87709 9.73804 10.2261 9.73804 10.6798V12.1457C9.73804 12.5994 10.0797 12.9484 10.5239 12.9484H19.4077C19.8519 12.9484 20.1936 12.5994 20.1936 12.1457V10.6798C20.1936 10.2261 19.8519 9.87709 19.4077 9.87709H10.5239Z" fill="white"/>
<path d="M10.8998 8.72534H19.0661C18.9977 7.5736 22.3462 0.663126 22.3462 0.663126C22.3462 0.663126 19.4419 4.2185e-07 18.1093 1.11684C17.3576 1.74507 16.3667 0.732929 14.6583 1.60546C13.7699 2.05918 13.2232 3.31563 11.8565 1.11684C10.4898 -1.11684 8.2688 0.698028 8.2688 0.698028C8.2688 0.698028 10.9681 7.6085 10.8998 8.72534Z" fill="white"/>
</g>
<defs>
<clipPath id="clip0_2007_67">
<rect width="30" height="46" fill="white"/>
</clipPath>
</defs>
</svg>
