<svg width="31" height="28" viewBox="0 0 31 28" fill="none" xmlns="http://www.w3.org/2000/svg">
<g clip-path="url(#clip0_2007_98)">
<path d="M12.191 18.9755C12.191 20.2305 13.1779 21.2465 14.397 21.2465H16.574C17.7931 21.2465 18.78 20.2305 18.78 18.9755V18.1985H31V25.4002C31 26.8346 29.839 28.0299 28.4457 28.0299H2.52528C1.13202 28.0299 -0.0290256 26.8346 -0.0290256 25.4002V18.1985H12.191V18.9755Z" fill="white"/>
<path d="M2.52528 4.09392H8.88202V2.36073C8.88202 1.07577 9.89794 0 11.1751 0H19.8249C21.073 0 22.118 1.04589 22.118 2.36073V4.09392H28.4457C29.839 4.09392 31 5.28922 31 6.72359V16.4653H18.78V15.8975C18.78 14.6425 17.7931 13.6265 16.574 13.6265H14.397C13.1779 13.6265 12.191 14.6425 12.191 15.8975V16.4653H-0.0290256V6.72359C5.82728e-07 5.25934 1.13202 4.09392 2.52528 4.09392ZM10.9719 4.09392H20.0281V2.36073C20.0281 2.2412 19.941 2.15155 19.8249 2.15155H11.1751C11.059 2.15155 10.9719 2.2412 10.9719 2.36073V4.09392Z" fill="white"/>
<path d="M17.0964 19.2444V15.6286C17.0964 15.4792 16.9803 15.3597 16.8352 15.3597H14.1648C14.0197 15.3597 13.9036 15.4792 13.9036 15.6286V19.2444C13.9036 19.3938 14.0197 19.5133 14.1648 19.5133H16.8352C16.9803 19.5133 17.0964 19.3938 17.0964 19.2444Z" fill="white"/>
</g>
<defs>
<clipPath id="clip0_2007_98">
<rect width="31" height="28" fill="white" transform="matrix(-1 0 0 1 31 0)"/>
</clipPath>
</defs>
</svg>
