<?xml version="1.0" encoding="utf-8"?>
<!-- Generator: Adobe Illustrator 24.0.1, SVG Export Plug-In . SVG Version: 6.00 Build 0)  -->
<svg version="1.1" id="Layer_1" xmlns="http://www.w3.org/2000/svg" xmlns:xlink="http://www.w3.org/1999/xlink" x="0px" y="0px"
	 viewBox="0 0 155.91 70.87" style="enable-background:new 0 0 155.91 70.87;" xml:space="preserve">
<style type="text/css">
	.st0{fill:#FFFFFF;}
</style>
<path d="M77.68,31.5v1.55h-0.41v-1.2H74.5l0.03,19.71h0.58v0.35h-3.7v-0.35h0.73V31.85h-0.73V31.5H77.68z"/>
<path d="M79.75,47.54c-0.02-2.33-0.03-4.25-0.02-5.74c0.01-1.5,0.02-2.68,0.02-3.56v-2.36c0-0.47,0.02-0.96,0.06-1.47
	c0.04-0.51,0.17-0.99,0.41-1.41s0.61-0.78,1.12-1.06c0.52-0.28,1.24-0.42,2.17-0.42c0.95,0,1.69,0.12,2.2,0.37
	c0.52,0.24,0.89,0.56,1.14,0.96s0.38,0.86,0.42,1.38c0.04,0.52,0.05,1.08,0.03,1.66c0,1.48,0,2.77,0.01,3.89
	c0.01,1.12,0.01,2.09,0.01,2.92s0,1.52,0.01,2.08c0.01,0.56,0.02,1.02,0.02,1.37c0,0.84,0.01,1.3,0.03,1.4
	c0,0.74-0.02,1.38-0.06,1.92c-0.04,0.54-0.18,1-0.42,1.36c-0.24,0.36-0.63,0.63-1.15,0.82c-0.53,0.19-1.27,0.28-2.25,0.28
	c-0.93,0-1.66-0.09-2.17-0.28c-0.51-0.18-0.89-0.46-1.12-0.83s-0.37-0.82-0.41-1.36C79.77,48.91,79.75,48.28,79.75,47.54z
	 M81.99,47.54c0,0.64,0.01,1.21,0.03,1.71c0.02,0.5,0.07,0.91,0.16,1.25s0.23,0.6,0.44,0.79c0.2,0.19,0.5,0.28,0.89,0.28
	c0.37,0,0.66-0.09,0.86-0.28c0.2-0.18,0.35-0.45,0.45-0.79s0.15-0.76,0.16-1.25c0.01-0.5,0.02-1.06,0.02-1.71v-1.98
	c0-0.82-0.01-1.99-0.02-3.51c-0.01-1.53-0.02-3.58-0.04-6.17c0.02-0.51,0.02-1,0-1.47c-0.02-0.48-0.07-0.9-0.16-1.28
	c-0.09-0.38-0.23-0.68-0.44-0.92c-0.21-0.23-0.48-0.35-0.83-0.35c-0.39,0-0.68,0.13-0.89,0.39c-0.2,0.26-0.35,0.59-0.44,0.99
	s-0.14,0.84-0.16,1.31c-0.02,0.48-0.03,0.92-0.03,1.33v2.8c0,0.95,0,2.16-0.01,3.63C81.97,43.77,81.97,45.52,81.99,47.54z"/>
<path d="M124.34,51.91h3.7v-0.35h-0.73v-9.97h3.91l0.03,9.97h-0.61v0.35h3.7v-0.35h-0.73V31.85h0.73V31.5h-3.7v0.35h0.58v9.3
	c0,0.01,0.01,0.02,0.02,0.03h-3.92v-9.33h0.73V31.5h-3.7v0.35h0.58l0.03,19.71h-0.61V51.91z"/>
<path d="M137.36,47.54c-0.02-2.33-0.02-4.25-0.01-5.74c0.01-1.5,0.01-2.68,0.01-3.56v-2.36c0-0.47,0.02-0.96,0.06-1.47
	c0.04-0.51,0.17-0.99,0.41-1.41c0.23-0.43,0.61-0.78,1.12-1.06c0.51-0.28,1.24-0.42,2.17-0.42c0.95,0,1.69,0.12,2.2,0.37
	c0.51,0.24,0.89,0.56,1.14,0.96c0.24,0.4,0.38,0.86,0.42,1.38c0.04,0.52,0.05,1.08,0.03,1.66c0,1.48,0,2.77,0.01,3.89
	c0.01,1.12,0.01,2.09,0.01,2.92s0,1.52,0.01,2.08c0.01,0.56,0.01,1.02,0.01,1.37c0,0.84,0.01,1.3,0.03,1.4
	c0,0.74-0.02,1.38-0.06,1.92c-0.04,0.54-0.18,1-0.42,1.36c-0.24,0.36-0.63,0.63-1.15,0.82c-0.52,0.19-1.27,0.28-2.25,0.28
	c-0.93,0-1.66-0.09-2.17-0.28c-0.52-0.18-0.89-0.46-1.12-0.83c-0.23-0.37-0.37-0.82-0.41-1.36
	C137.38,48.91,137.36,48.28,137.36,47.54z M139.61,47.54c0,0.64,0.01,1.21,0.03,1.71c0.02,0.5,0.07,0.91,0.16,1.25
	c0.09,0.34,0.23,0.6,0.44,0.79c0.2,0.19,0.5,0.28,0.89,0.28c0.37,0,0.66-0.09,0.86-0.28c0.2-0.18,0.35-0.45,0.45-0.79
	c0.1-0.34,0.15-0.76,0.16-1.25c0.01-0.5,0.01-1.06,0.01-1.71v-1.98c0-0.82,0-1.99-0.01-3.51c-0.01-1.53-0.02-3.58-0.04-6.17
	c0.02-0.51,0.02-1,0-1.47s-0.07-0.9-0.16-1.28c-0.09-0.38-0.23-0.68-0.44-0.92c-0.2-0.23-0.48-0.35-0.83-0.35
	c-0.39,0-0.68,0.13-0.89,0.39c-0.2,0.26-0.35,0.59-0.44,0.99c-0.09,0.4-0.14,0.84-0.16,1.31c-0.02,0.48-0.03,0.92-0.03,1.33v2.8
	c0,0.95,0,2.16-0.01,3.63C139.58,43.77,139.59,45.52,139.61,47.54z"/>
<g>
	<g>
		<path d="M74.45,57.34l2.24,5.78c0.09,0.23,0.2,0.39,0.31,0.46c0.12,0.08,0.22,0.12,0.32,0.12v0.18c-0.12-0.01-0.27-0.02-0.45-0.02
			c-0.18,0-0.36,0-0.53,0c-0.24,0-0.46,0-0.67,0c-0.21,0-0.38,0.01-0.5,0.02v-0.18c0.31-0.01,0.51-0.07,0.6-0.16
			c0.09-0.09,0.07-0.3-0.05-0.61L74,58.37l0.15-0.12l-1.6,4.15c-0.1,0.24-0.16,0.45-0.17,0.62c-0.02,0.17,0,0.3,0.05,0.4
			c0.05,0.1,0.14,0.17,0.27,0.21c0.13,0.04,0.28,0.07,0.47,0.07v0.18c-0.17-0.01-0.35-0.02-0.54-0.02c-0.19,0-0.36,0-0.52,0
			c-0.15,0-0.28,0-0.39,0c-0.11,0-0.21,0.01-0.3,0.02v-0.18c0.12-0.03,0.25-0.1,0.38-0.22s0.24-0.31,0.35-0.58l2.16-5.57
			c0.02,0,0.05,0,0.07,0S74.42,57.34,74.45,57.34z M75.57,61.25v0.18h-2.74l0.09-0.18H75.57z"/>
		<path d="M89.68,57.39v0.18c-0.21,0.01-0.37,0.03-0.47,0.07c-0.11,0.04-0.18,0.11-0.22,0.22c-0.04,0.11-0.05,0.27-0.05,0.5v4.55
			c0,0.22,0.02,0.39,0.05,0.5c0.04,0.11,0.11,0.19,0.22,0.23c0.11,0.04,0.26,0.06,0.47,0.06h0.28c-0.02,0.21-0.04,0.42-0.05,0.62
			c-0.01,0.2-0.01,0.36-0.01,0.46c0,0.11,0,0.22,0.01,0.32c0.01,0.1,0.01,0.19,0.02,0.25h-0.21c-0.04-0.36-0.09-0.65-0.16-0.86
			c-0.07-0.21-0.18-0.37-0.34-0.46c-0.16-0.1-0.41-0.14-0.73-0.14h-2.62c-0.32,0-0.57,0.05-0.73,0.14
			c-0.16,0.09-0.28,0.25-0.34,0.46c-0.06,0.21-0.12,0.5-0.16,0.86h-0.21c0.01-0.07,0.02-0.15,0.02-0.25c0-0.1,0-0.21,0-0.32
			c0-0.1,0-0.26-0.01-0.46s-0.03-0.41-0.05-0.62h2.95c0.21,0,0.37-0.02,0.47-0.06s0.18-0.12,0.22-0.23s0.06-0.28,0.06-0.5v-4.55
			c0-0.23-0.02-0.39-0.06-0.5s-0.11-0.19-0.22-0.22c-0.11-0.04-0.26-0.06-0.47-0.06h-0.12c-0.21,0-0.37,0.02-0.47,0.06
			c-0.1,0.04-0.16,0.12-0.19,0.23c-0.03,0.11-0.06,0.28-0.08,0.5c-0.03,0.35-0.06,0.73-0.09,1.13c-0.03,0.4-0.06,0.81-0.11,1.23
			s-0.1,0.81-0.18,1.18c-0.08,0.38-0.18,0.71-0.31,1.01s-0.29,0.53-0.5,0.71c-0.2,0.17-0.45,0.26-0.74,0.26v-0.17
			c0.28,0,0.52-0.11,0.71-0.32c0.19-0.21,0.34-0.5,0.46-0.86c0.12-0.36,0.21-0.77,0.28-1.23c0.07-0.46,0.12-0.94,0.16-1.45
			c0.04-0.5,0.07-1,0.1-1.49c0.01-0.21,0-0.38-0.03-0.49c-0.03-0.11-0.11-0.19-0.21-0.23c-0.11-0.04-0.28-0.07-0.5-0.07v-0.18
			c0.13,0.01,0.28,0.01,0.46,0.02s0.34,0.01,0.49,0.01c0.14,0,0.28,0,0.41-0.01c0.13-0.01,0.26-0.01,0.4-0.01
			c0.23,0,0.44,0,0.63,0.01c0.19,0.01,0.42,0.01,0.68,0.01c0.12,0,0.25,0,0.39,0s0.26-0.01,0.39-0.01
			C89.49,57.4,89.6,57.4,89.68,57.39z"/>
		<path d="M97.63,57.39c0.13,0.01,0.3,0.01,0.5,0.02c0.21,0.01,0.41,0.01,0.62,0.01c0.29,0,0.56,0,0.83-0.01s0.45-0.01,0.56-0.01
			c0.64,0,1.13,0.13,1.45,0.4c0.32,0.27,0.49,0.62,0.49,1.04c0,0.21-0.04,0.42-0.13,0.63c-0.09,0.21-0.24,0.39-0.44,0.56
			c-0.21,0.17-0.48,0.3-0.82,0.41v0.02c0.48,0.06,0.86,0.18,1.13,0.34c0.27,0.17,0.46,0.37,0.57,0.59c0.11,0.23,0.17,0.47,0.17,0.72
			c0,0.35-0.09,0.66-0.26,0.92c-0.17,0.27-0.43,0.48-0.76,0.63s-0.73,0.23-1.18,0.23c-0.13,0-0.34,0-0.61-0.01
			c-0.27-0.01-0.59-0.01-0.97-0.01c-0.21,0-0.43,0-0.63,0c-0.21,0-0.38,0.01-0.5,0.02v-0.18c0.21-0.01,0.37-0.04,0.47-0.07
			c0.11-0.04,0.18-0.11,0.21-0.22c0.04-0.11,0.06-0.28,0.06-0.5v-4.55c0-0.23-0.02-0.39-0.06-0.5c-0.04-0.11-0.11-0.18-0.21-0.22
			s-0.27-0.06-0.47-0.07V57.39z M99.91,57.57c-0.28,0-0.47,0.05-0.55,0.16c-0.09,0.1-0.13,0.32-0.13,0.63v4.55
			c0,0.21,0.02,0.38,0.05,0.49c0.04,0.11,0.1,0.18,0.2,0.22c0.1,0.04,0.24,0.06,0.43,0.06c0.6,0,1.04-0.14,1.31-0.42
			s0.41-0.67,0.41-1.19c0-0.47-0.13-0.84-0.38-1.09s-0.67-0.39-1.25-0.39h-0.95v-0.16h0.79c0.36,0,0.64-0.07,0.84-0.21
			c0.2-0.14,0.33-0.32,0.4-0.55c0.07-0.23,0.11-0.48,0.11-0.74c0-0.45-0.1-0.79-0.3-1.02S100.36,57.57,99.91,57.57z"/>
		<path d="M113.47,57.26c0.58,0,1.09,0.13,1.53,0.39c0.44,0.26,0.78,0.64,1.02,1.13c0.24,0.49,0.36,1.09,0.36,1.8
			c0,0.69-0.13,1.29-0.37,1.8c-0.25,0.51-0.59,0.92-1.03,1.2c-0.44,0.29-0.95,0.43-1.51,0.43c-0.58,0-1.09-0.13-1.53-0.4
			c-0.44-0.26-0.78-0.64-1.02-1.14s-0.36-1.09-0.36-1.79c0-0.69,0.13-1.29,0.38-1.8c0.25-0.51,0.6-0.92,1.03-1.2
			C112.4,57.4,112.9,57.26,113.47,57.26z M113.43,57.43c-0.4,0-0.74,0.14-1.04,0.41c-0.29,0.28-0.52,0.66-0.68,1.14
			s-0.24,1.04-0.24,1.68c0,0.65,0.09,1.21,0.27,1.69s0.43,0.85,0.73,1.11c0.31,0.26,0.65,0.39,1.02,0.39c0.4,0,0.74-0.14,1.04-0.41
			c0.29-0.28,0.52-0.66,0.68-1.14c0.16-0.49,0.24-1.04,0.24-1.68c0-0.65-0.09-1.22-0.27-1.7c-0.18-0.48-0.42-0.85-0.73-1.11
			C114.15,57.56,113.81,57.43,113.43,57.43z"/>
		<path d="M126.62,57.39v0.18c-0.21,0.01-0.37,0.03-0.47,0.07c-0.11,0.04-0.18,0.11-0.22,0.22c-0.04,0.11-0.06,0.27-0.06,0.5v4.55
			c0,0.22,0.02,0.39,0.06,0.5c0.04,0.11,0.11,0.18,0.22,0.22c0.11,0.04,0.26,0.06,0.47,0.07v0.18c-0.14-0.01-0.32-0.02-0.53-0.02
			c-0.21,0-0.42,0-0.64,0c-0.24,0-0.46,0-0.67,0c-0.21,0-0.38,0.01-0.5,0.02v-0.18c0.21-0.01,0.37-0.04,0.47-0.07
			c0.11-0.04,0.18-0.11,0.22-0.22c0.04-0.11,0.06-0.28,0.06-0.5v-4.55c0-0.23-0.02-0.39-0.06-0.5c-0.04-0.11-0.11-0.18-0.22-0.22
			s-0.26-0.06-0.47-0.07v-0.18c0.13,0.01,0.3,0.01,0.5,0.02s0.43,0.01,0.67,0.01c0.21,0,0.43,0,0.64-0.01S126.48,57.4,126.62,57.39z
			 M126.52,60.44c0.33,0,0.63,0.03,0.91,0.1c0.29,0.07,0.53,0.2,0.73,0.39c0.2,0.19,0.35,0.47,0.43,0.84l0.27,1.16
			c0.07,0.28,0.13,0.48,0.18,0.59c0.06,0.11,0.15,0.17,0.29,0.16c0.1-0.01,0.19-0.04,0.26-0.1c0.07-0.06,0.15-0.14,0.22-0.25
			l0.14,0.1c-0.12,0.17-0.24,0.31-0.39,0.42c-0.14,0.11-0.34,0.17-0.6,0.17c-0.21,0-0.41-0.06-0.58-0.19
			c-0.17-0.13-0.31-0.39-0.4-0.8l-0.26-1.14c-0.06-0.26-0.12-0.48-0.19-0.67c-0.07-0.19-0.19-0.34-0.35-0.45
			c-0.16-0.11-0.39-0.16-0.71-0.16h-0.78v-0.17H126.52z M125.88,60.61v-0.17c0.26-0.01,0.47-0.06,0.65-0.16
			c0.17-0.1,0.32-0.23,0.44-0.37l0.88-1.12c0.2-0.26,0.34-0.47,0.41-0.65c0.07-0.18,0.07-0.31-0.01-0.41
			c-0.08-0.1-0.25-0.15-0.5-0.15v-0.18c0.12,0.01,0.24,0.01,0.36,0.01c0.12,0,0.24,0.01,0.36,0.01s0.23,0,0.33,0
			c0.16,0,0.31,0,0.44-0.01s0.25-0.01,0.34-0.02v0.18c-0.19,0.03-0.37,0.09-0.55,0.19c-0.18,0.1-0.36,0.26-0.53,0.48l-1.86,2.37
			H125.88z"/>
		<path d="M140.18,57.34l2.24,5.78c0.09,0.23,0.2,0.39,0.31,0.46c0.12,0.08,0.22,0.12,0.32,0.12v0.18
			c-0.12-0.01-0.27-0.02-0.45-0.02c-0.18,0-0.36,0-0.53,0c-0.24,0-0.46,0-0.67,0c-0.21,0-0.38,0.01-0.5,0.02v-0.18
			c0.31-0.01,0.51-0.07,0.6-0.16c0.09-0.09,0.07-0.3-0.05-0.61l-1.71-4.56l0.15-0.12l-1.6,4.15c-0.1,0.24-0.16,0.45-0.17,0.62
			c-0.02,0.17,0,0.3,0.05,0.4c0.05,0.1,0.14,0.17,0.27,0.21c0.13,0.04,0.28,0.07,0.47,0.07v0.18c-0.17-0.01-0.35-0.02-0.54-0.02
			c-0.19,0-0.36,0-0.52,0c-0.15,0-0.28,0-0.39,0c-0.11,0-0.21,0.01-0.3,0.02v-0.18c0.12-0.03,0.25-0.1,0.38-0.22
			c0.13-0.11,0.24-0.31,0.35-0.58l2.16-5.57c0.02,0,0.05,0,0.07,0S140.16,57.34,140.18,57.34z M141.3,61.25v0.18h-2.74l0.09-0.18
			H141.3z"/>
		<path d="M155.1,57.39c-0.02,0.23-0.04,0.46-0.05,0.67c-0.01,0.22-0.01,0.38-0.01,0.5c0,0.15,0,0.28,0.01,0.41
			c0.01,0.13,0.01,0.24,0.02,0.34h-0.21c-0.04-0.43-0.1-0.77-0.17-1.01c-0.07-0.25-0.2-0.43-0.39-0.54s-0.47-0.17-0.85-0.17h-0.5
			v5.22c0,0.25,0.02,0.43,0.07,0.55c0.05,0.12,0.14,0.21,0.27,0.25c0.13,0.04,0.33,0.07,0.59,0.08v0.18
			c-0.16-0.01-0.36-0.02-0.61-0.02c-0.25,0-0.49,0-0.74,0c-0.28,0-0.53,0-0.78,0c-0.24,0-0.44,0.01-0.58,0.02v-0.18
			c0.26-0.01,0.45-0.04,0.59-0.08c0.13-0.04,0.22-0.13,0.27-0.25c0.05-0.12,0.07-0.31,0.07-0.55V57.6h-0.5
			c-0.38,0-0.66,0.05-0.85,0.17s-0.32,0.29-0.39,0.54s-0.13,0.59-0.17,1.01h-0.21c0.01-0.1,0.02-0.21,0.02-0.34s0-0.27,0-0.41
			c0-0.12,0-0.28-0.01-0.5c-0.01-0.22-0.03-0.44-0.05-0.67c0.26,0.01,0.54,0.01,0.84,0.02s0.61,0.01,0.91,0.01c0.31,0,0.58,0,0.83,0
			s0.53,0,0.83,0c0.3,0,0.61,0,0.91-0.01C154.58,57.4,154.85,57.4,155.1,57.39z"/>
	</g>
</g>
<g>
	<rect x="1.65" y="5.87" width="58.07" height="58.07"/>
	<g>
		<rect x="14.43" y="19.09" class="st0" width="32.53" height="2.62"/>
		<rect x="12.66" y="13.95" class="st0" width="36.06" height="3.51"/>
		<g>
			<polygon class="st0" points="39.5,24.39 35.6,24.39 35.6,45.21 39.5,42.28 			"/>
			<polygon class="st0" points="32.64,24.39 28.74,24.39 28.74,50.36 32.64,47.43 			"/>
			<polygon class="st0" points="25.78,24.39 21.88,24.39 21.88,55.52 25.78,52.59 			"/>
			<polygon class="st0" points="19.6,24.39 17.65,24.39 17.65,58.7 19.6,57.23 			"/>
			<polygon class="st0" points="43.73,24.39 41.78,24.39 41.78,40.56 43.73,39.1 			"/>
		</g>
	</g>
</g>
<path d="M98.21,37.89c0-1.59-0.08-2.82-0.23-3.69c-0.15-0.86-0.43-1.5-0.82-1.9c-0.39-0.4-0.9-0.63-1.54-0.7
	c-0.58-0.06-1.7-0.1-2.6-0.1v0c0,0,0,0,0,0h-3.09v0.35h0.73v19.71h-0.73v0.35h3.7v-0.35h-0.58v-3.74l0-2.38
	c0.89-0.01,2-0.04,2.57-0.1c0.64-0.07,1.16-0.3,1.54-0.7c0.39-0.4,0.66-1.03,0.82-1.9c0.16-0.87,0.23-2.09,0.23-3.69
	c0-0.21,0-0.4,0-0.59C98.2,38.28,98.21,38.09,98.21,37.89z M95.96,38.48c0,0.11,0,0.22,0,0.33h0c0,0.09,0,0.17,0,0.26
	c0,1.58-0.07,2.77-0.2,3.59c-0.14,0.82-0.33,1.41-0.57,1.78c-0.24,0.37-0.54,0.57-0.88,0.61c-0.27,0.03-0.86,0.05-1.28,0.05
	l-0.02-13.24c0.42,0.01,1.03,0.02,1.3,0.05c0.34,0.04,0.63,0.24,0.88,0.61c0.24,0.37,0.43,0.96,0.57,1.78
	c0.13,0.82,0.2,2.01,0.2,3.59c0,0.09,0,0.17,0,0.26h0C95.96,38.25,95.96,38.37,95.96,38.48z"/>
<path d="M80.97,7.4c0,1.15,0,2.19,0,3.12c0,0.93,0,2,0,3.19s0.01,2.42,0.02,3.66S81,19.83,81,21.03s0,2.26,0,3.21s0,1.71,0,2.3
	c0,0.59,0,0.9,0,0.92h1.63v1.57h-0.35V27.8H71.76v1.22h-0.35v-1.57h1.4c0.47-0.86,0.88-1.89,1.25-3.09
	c0.33-1.01,0.63-2.26,0.89-3.75c0.26-1.49,0.39-3.2,0.39-5.15V7.4H80.97z M75.75,7.75v7.7c0,1.94-0.13,3.66-0.39,5.15
	c-0.26,1.49-0.55,2.75-0.86,3.78c-0.37,1.21-0.79,2.24-1.25,3.09h5.36V7.75H75.75z"/>
<path d="M89.2,27.67l-3.79-17.7l0.09,17.49h0.67v0.35h-1.89v-0.35H85V7.75h-0.73V7.4h3.09l3.14,14.32L94.79,7.4h2.54v0.35H96.6
	l0.03,19.71h0.7v0.35h-3.94v-0.35h0.85V10.8L89.2,27.67z"/>
<path d="M120.31,7.4v1.43h-0.38V7.75h-2.89l0.03,19.71h0.58v0.35h-3.7v-0.35h0.73V7.75h-2.74v1.08h-0.38V7.4H120.31z"/>
<path d="M130.51,13.78c0-1.59-0.08-2.82-0.23-3.69c-0.15-0.86-0.43-1.5-0.82-1.9c-0.39-0.4-0.9-0.63-1.54-0.7
	c-0.58-0.06-1.7-0.1-2.6-0.1v0c0,0,0,0,0,0h-3.09v0.35h0.73v19.71h-0.73v0.35h3.7v-0.35h-0.58v-3.74l0-2.38
	c0.89-0.01,2-0.04,2.57-0.1c0.64-0.07,1.16-0.3,1.54-0.7c0.39-0.4,0.66-1.03,0.82-1.9c0.16-0.87,0.23-2.09,0.23-3.69
	c0-0.21,0-0.4,0-0.59C130.51,14.18,130.51,13.99,130.51,13.78z M128.27,14.37c0,0.11,0,0.22,0,0.33h0c0,0.09,0,0.17,0,0.26
	c0,1.58-0.07,2.77-0.2,3.59c-0.14,0.82-0.33,1.41-0.57,1.78c-0.24,0.37-0.54,0.57-0.88,0.61c-0.27,0.03-0.86,0.05-1.28,0.05
	l-0.02-13.24c0.42,0.01,1.03,0.02,1.3,0.05c0.34,0.04,0.63,0.24,0.88,0.61c0.24,0.37,0.43,0.96,0.57,1.78
	c0.13,0.82,0.2,2.01,0.2,3.59c0,0.09,0,0.17,0,0.26h0C128.27,14.15,128.27,14.26,128.27,14.37z"/>
<path d="M109.48,31.85V31.5h-3.09c0,0,0,0,0,0v0c-0.88,0.01-1.82,0-2.38,0.06c-0.64,0.07-1.3,0.34-1.69,0.74
	c-0.39,0.4-0.74,1.02-0.82,1.9c-0.05,0.6,0,5.65,0,5.65c0.05,0.78,0.27,1.37,0.82,1.9c0.4,0.38,0.9,0.63,1.54,0.7
	c0.03,0,0.09,0.01,0.12,0.01c-0.75,0.07-1.78,0.39-2.25,1.11c-0.23,0.35-0.32,0.85-0.35,1.44c-0.03,0.59-0.06,3.67-0.04,4.26
	c0.02,0.59,0.01,1.06-0.04,1.4c-0.05,0.34-0.16,0.57-0.32,0.69c-0.17,0.12-0.43,0.18-0.8,0.18v0.38c0.93,0,1.64-0.07,2.11-0.22
	c0.48-0.15,0.81-0.41,1.01-0.8s0.29-0.89,0.29-1.52c0-0.63,0-3.22,0-4.21c0-2.36,1.42-2.62,2.1-2.64c0.24,0.01,0.47,0.01,0.69,0.01
	l-0.01,8.99h-0.58v0.38h3.7v-0.38h-0.73V31.85H109.48z M105.15,42.13c-1.04-0.08-1.43-1.05-1.44-2.39V34.3
	c-0.05-1.82,0.99-2.39,1.44-2.39l1.23,0l-0.01,10.23L105.15,42.13z"/>
<path d="M155.08,40.65c-0.08-0.88-0.43-1.5-0.82-1.9c-0.3-0.31-0.76-0.54-1.26-0.66c0.62-0.13,1.52-0.57,1.59-1.86l0.03-2.29
	c-0.01-0.96-0.59-2.32-3.04-2.45h-4.25v0.41h0.73V51.5h-0.73v0.41h2.87v0c0.01,0,0.01,0,0.02,0h0.23v0c0.84-0.01,1.79-0.04,2.31-0.1
	c0.64-0.07,1.14-0.31,1.54-0.7c0.55-0.53,0.77-1.11,0.82-1.9C155.13,49.22,155.13,41.25,155.08,40.65z M150.43,31.91
	c0.43,0,0.78-0.02,1.09,0.02s1.34,0.23,1.43,2l0,2.26c0,1.58-1.25,1.76-1.57,1.76l-0.95,0V31.91z M151.47,51.5l-1.01,0.01
	l-0.03-13.11v-0.04l0.99,0c0.45,0,1.5,0.57,1.44,2.39l0.05,8.36C152.9,50.46,152.51,51.42,151.47,51.5z"/>
<g>
	<g>
		<rect x="148.05" y="5.87" width="4.07" height="0.85"/>
	</g>
	<polygon points="155.14,7.4 151.43,7.4 151.43,7.75 152.16,7.75 152.16,7.8 148.08,26.02 148.05,7.75 148.66,7.75 148.66,7.4 
		144.96,7.4 144.96,7.75 145.69,7.75 145.69,20.94 145.69,27.07 145.69,27.45 144.96,27.45 144.96,27.8 148.66,27.8 148.66,27.45 
		148.08,27.45 148.08,27.16 148.1,27.44 152.16,9.31 152.16,27.45 151.43,27.45 151.43,27.8 155.14,27.8 155.14,27.45 154.55,27.45 
		154.52,7.75 155.14,7.75 	"/>
</g>
<polygon points="142.78,7.4 139.08,7.4 139.08,7.75 139.81,7.75 139.81,7.8 135.73,26.02 135.7,7.75 136.31,7.75 136.31,7.4 
	132.61,7.4 132.61,7.75 133.34,7.75 133.34,20.94 133.34,27.07 133.34,27.45 132.61,27.45 132.61,27.8 136.31,27.8 136.31,27.45 
	135.73,27.45 135.73,27.16 135.75,27.44 139.81,9.31 139.81,27.45 139.08,27.45 139.08,27.8 142.78,27.8 142.78,27.45 142.2,27.45 
	142.17,7.75 142.78,7.75 "/>
<polygon points="109.87,7.4 106.17,7.4 106.17,7.75 106.89,7.75 106.89,7.8 102.81,26.02 102.78,7.75 103.4,7.75 103.4,7.4 
	99.69,7.4 99.69,7.75 100.42,7.75 100.42,20.94 100.42,27.07 100.42,27.45 99.69,27.45 99.69,27.8 103.4,27.8 103.4,27.45 
	102.81,27.45 102.81,27.16 102.84,27.44 106.89,9.31 106.89,27.45 106.17,27.45 106.17,27.8 109.87,27.8 109.87,27.45 109.28,27.45 
	109.26,7.75 109.87,7.75 "/>
<polygon points="121.74,31.5 118.04,31.5 118.04,31.85 118.77,31.85 118.77,31.91 114.68,50.12 114.66,31.85 115.27,31.85 
	115.27,31.5 111.56,31.5 111.56,31.85 112.29,31.85 112.29,45.05 112.29,51.17 112.29,51.56 111.56,51.56 111.56,51.91 
	115.27,51.91 115.27,51.56 114.68,51.56 114.68,51.26 114.71,51.55 118.77,33.42 118.77,51.56 118.04,51.56 118.04,51.91 
	121.74,51.91 121.74,51.56 121.16,51.56 121.13,31.85 121.74,31.85 "/>
</svg>
