<svg width="185" height="72" viewBox="0 0 185 72" fill="none" xmlns="http://www.w3.org/2000/svg">
<g clip-path="url(#clip0_47_5)">
<path d="M0 0V70H70V0H0ZM21.6 61.9L19.3 63.7V22.3H21.6V61.9ZM29.1 56.3L24.4 59.8V22.3H29.1V56.3ZM37.3 50.1L32.6 53.6V22.3H37.3V50.1ZM45.6 43.9L40.9 47.4V22.3H45.6V43.9ZM50.7 40L48.4 41.8V22.3H50.7V40ZM54.6 19.1H15.4V15.9H54.6V19.1ZM56.7 14H13.3V9.7H56.7V14Z" fill="white"/>
<path d="M91.6 30.9V32.8H91.1V31.4H87.8V55.1H88.5V55.5H84V55H84.9V31.3H84V30.9H91.6Z" fill="black"/>
<path d="M94.1 50.2C94.1 47.4 94.1 45.1 94.1 43.3C94.1 41.5 94.1 40.1 94.1 39V36.2C94.1 35.6 94.1 35 94.2 34.4C94.2 33.8 94.4 33.2 94.7 32.7C95 32.2 95.4 31.8 96.1 31.4C96.7 31.1 97.6 30.9 98.7 30.9C99.8 30.9 100.7 31 101.4 31.3C102 31.6 102.5 32 102.8 32.5C103.1 33 103.3 33.5 103.3 34.2C103.3 34.8 103.4 35.5 103.3 36.2C103.3 38 103.3 39.5 103.3 40.9C103.3 42.2 103.3 43.4 103.3 44.4C103.3 45.4 103.3 46.2 103.3 46.9C103.3 47.6 103.3 48.1 103.3 48.6C103.3 49.6 103.3 50.2 103.3 50.3C103.3 51.2 103.3 52 103.2 52.6C103.2 53.3 103 53.8 102.7 54.2C102.4 54.6 101.9 55 101.3 55.2C100.7 55.4 99.8 55.5 98.6 55.5C97.5 55.5 96.6 55.4 96 55.2C95.4 55 94.9 54.6 94.6 54.2C94.3 53.8 94.2 53.2 94.1 52.6C94.1 51.8 94.1 51.1 94.1 50.2ZM96.8 50.2C96.8 51 96.8 51.7 96.8 52.3C96.8 52.9 96.9 53.4 97 53.8C97.1 54.2 97.3 54.5 97.5 54.7C97.7 54.9 98.1 55 98.6 55C99 55 99.4 54.9 99.6 54.7C99.8 54.5 100 54.2 100.1 53.8C100.2 53.4 100.3 52.9 100.3 52.3C100.3 51.7 100.3 51 100.3 50.2V47.8C100.3 46.8 100.3 45.4 100.3 43.6C100.3 41.8 100.3 39.3 100.2 36.2C100.2 35.6 100.2 35 100.2 34.4C100.2 33.8 100.1 33.3 100 32.9C99.9 32.4 99.7 32.1 99.5 31.8C99.3 31.5 98.9 31.4 98.5 31.4C98 31.4 97.7 31.6 97.4 31.9C97.2 32.2 97 32.6 96.9 33.1C96.8 33.6 96.7 34.1 96.7 34.7C96.7 35.3 96.7 35.8 96.7 36.3V39.7C96.7 40.8 96.7 42.3 96.7 44.1C96.7 45.7 96.8 47.8 96.8 50.2Z" fill="black"/>
<path d="M147.8 55.5H152.3V55H151.4V43H156.1V55H155.4V55.4H159.9V55H159V31.3H159.9V30.9H155.4V31.3H156.1V42.5H151.4V31.3H152.3V30.9H147.8V31.3H148.5V55H147.8V55.5Z" fill="black"/>
<path d="M163.5 50.2C163.5 47.4 163.5 45.1 163.5 43.3C163.5 41.5 163.5 40.1 163.5 39V36.2C163.5 35.6 163.5 35 163.6 34.4C163.6 33.8 163.8 33.2 164.1 32.7C164.4 32.2 164.8 31.8 165.5 31.4C166.1 31.1 167 30.9 168.1 30.9C169.2 30.9 170.1 31 170.8 31.3C171.4 31.6 171.9 32 172.2 32.5C172.5 33 172.7 33.5 172.7 34.2C172.7 34.8 172.8 35.5 172.7 36.2C172.7 38 172.7 39.5 172.7 40.9C172.7 42.2 172.7 43.4 172.7 44.4C172.7 45.4 172.7 46.2 172.7 46.9C172.7 47.6 172.7 48.1 172.7 48.6C172.7 49.6 172.7 50.2 172.7 50.3C172.7 51.2 172.7 52 172.6 52.6C172.6 53.3 172.4 53.8 172.1 54.2C171.8 54.6 171.3 55 170.7 55.2C170.1 55.4 169.2 55.5 168 55.5C166.9 55.5 166 55.4 165.4 55.2C164.8 55 164.3 54.6 164 54.2C163.7 53.8 163.6 53.2 163.5 52.6C163.5 51.8 163.5 51.1 163.5 50.2ZM166.2 50.2C166.2 51 166.2 51.7 166.2 52.3C166.2 52.9 166.3 53.4 166.4 53.8C166.5 54.2 166.7 54.5 166.9 54.7C167.1 54.9 167.5 55 168 55C168.4 55 168.8 54.9 169 54.7C169.2 54.5 169.4 54.2 169.5 53.8C169.6 53.4 169.7 52.9 169.7 52.3C169.7 51.7 169.7 51 169.7 50.2V47.8C169.7 46.8 169.7 45.4 169.7 43.6C169.7 41.8 169.7 39.3 169.6 36.2C169.6 35.6 169.6 35 169.6 34.4C169.6 33.8 169.5 33.3 169.4 32.9C169.3 32.4 169.1 32.1 168.9 31.8C168.7 31.5 168.3 31.4 167.9 31.4C167.4 31.4 167.1 31.6 166.8 31.9C166.6 32.2 166.4 32.6 166.3 33.1C166.2 33.6 166.1 34.1 166.1 34.7C166.1 35.3 166.1 35.8 166.1 36.3V39.7C166.1 40.8 166.1 42.3 166.1 44.1C166.1 45.7 166.2 47.8 166.2 50.2Z" fill="black"/>
<path d="M87.7 62L90.4 69C90.5 69.3 90.6 69.5 90.8 69.6C90.9 69.7 91.1 69.7 91.2 69.7V69.9C91.1 69.9 90.9 69.9 90.7 69.9C90.5 69.9 90.3 69.9 90.1 69.9C89.8 69.9 89.5 69.9 89.3 69.9C89 69.9 88.8 69.9 88.7 69.9V69.7C89.1 69.7 89.3 69.6 89.4 69.5C89.5 69.4 89.5 69.1 89.3 68.8L87.2 63.3L87.4 63.2L85.5 68.2C85.4 68.5 85.3 68.7 85.3 68.9C85.3 69.1 85.3 69.3 85.4 69.4C85.5 69.5 85.6 69.6 85.7 69.7C85.9 69.8 86 69.8 86.3 69.8V70C86.1 70 85.9 70 85.7 70C85.5 70 85.3 70 85.1 70C84.9 70 84.8 70 84.6 70C84.5 70 84.4 70 84.2 70V69.8C84.3 69.8 84.5 69.7 84.7 69.5C84.9 69.4 85 69.1 85.1 68.8L87.7 62.1C87.5 62 87.6 62 87.7 62ZM89 66.7V66.9H85.7L85.8 66.7H89Z" fill="black"/>
<path d="M106 62.1V62.3C105.7 62.3 105.6 62.3 105.4 62.4C105.3 62.4 105.2 62.5 105.1 62.7C105.1 62.8 105 63 105 63.3V68.8C105 69.1 105 69.3 105.1 69.4C105.1 69.5 105.2 69.6 105.4 69.7C105.5 69.7 105.7 69.8 106 69.8H106.3C106.3 70.1 106.3 70.3 106.2 70.6C106.2 70.8 106.2 71 106.2 71.2C106.2 71.3 106.2 71.5 106.2 71.6C106.2 71.7 106.2 71.8 106.2 71.9H105.9C105.9 71.5 105.8 71.1 105.7 70.9C105.6 70.6 105.5 70.5 105.3 70.3C105.1 70.2 104.8 70.1 104.4 70.1H101.2C100.8 70.1 100.5 70.2 100.3 70.3C100.1 70.4 99.9999 70.6 99.8999 70.9C99.7999 71.2 99.7999 71.5 99.6999 71.9H99.3999C99.3999 71.8 99.3999 71.7 99.3999 71.6C99.3999 71.5 99.3999 71.4 99.3999 71.2C99.3999 71.1 99.3999 70.9 99.3999 70.6C99.3999 70.3 99.3999 70.1 99.2999 69.8H102.9C103.2 69.8 103.3 69.8 103.5 69.7C103.6 69.7 103.7 69.6 103.8 69.4C103.9 69.2 103.9 69.1 103.9 68.8V63.3C103.9 63 103.9 62.8 103.8 62.7C103.8 62.6 103.7 62.5 103.5 62.4C103.4 62.4 103.2 62.3 102.9 62.3H102.8C102.5 62.3 102.4 62.3 102.2 62.4C102.1 62.4 102 62.5 102 62.7C102 62.8 101.9 63 101.9 63.3C101.9 63.7 101.8 64.2 101.8 64.7C101.8 65.2 101.7 65.7 101.7 66.2C101.6 66.7 101.6 67.2 101.5 67.6C101.4 68.1 101.3 68.5 101.1 68.8C100.9 69.2 100.7 69.4 100.5 69.7C100.3 69.9 99.9999 70 99.5999 70V69.8C99.8999 69.8 100.2 69.7 100.5 69.4C100.7 69.1 100.9 68.8 101.1 68.4C101.2 68 101.4 67.5 101.4 66.9C101.5 66.3 101.5 65.8 101.6 65.2C101.6 64.6 101.7 64 101.7 63.4C101.7 63.1 101.7 62.9 101.7 62.8C101.7 62.7 101.6 62.6 101.4 62.5C101.3 62.4 101.1 62.4 100.8 62.4V62.2C101 62.2 101.1 62.2 101.4 62.2C101.7 62.2 101.8 62.2 102 62.2C102.2 62.2 102.3 62.2 102.5 62.2C102.7 62.2 102.8 62.2 103 62.2C103.3 62.2 103.5 62.2 103.8 62.2C104 62.2 104.3 62.2 104.6 62.2C104.7 62.2 104.9 62.2 105.1 62.2C105.3 62.2 105.4 62.2 105.6 62.2C105.8 62.1 105.9 62.1 106 62.1Z" fill="black"/>
<path d="M115.6 62.1C115.8 62.1 116 62.1 116.2 62.1C116.5 62.1 116.7 62.1 116.9 62.1C117.2 62.1 117.6 62.1 117.9 62.1C118.2 62.1 118.4 62.1 118.6 62.1C119.4 62.1 120 62.3 120.3 62.6C120.7 62.9 120.9 63.3 120.9 63.9C120.9 64.2 120.8 64.4 120.7 64.7C120.6 64.9 120.4 65.2 120.2 65.4C120 65.6 119.6 65.8 119.2 65.9C119.8 66 120.2 66.1 120.6 66.3C120.9 66.5 121.2 66.7 121.3 67C121.4 67.3 121.5 67.6 121.5 67.9C121.5 68.3 121.4 68.7 121.2 69C121 69.3 120.7 69.6 120.3 69.8C119.9 70 119.4 70.1 118.9 70.1C118.7 70.1 118.5 70.1 118.2 70.1C117.9 70.1 117.5 70.1 117 70.1C116.7 70.1 116.5 70.1 116.2 70.1C116 70.1 115.7 70.1 115.6 70.1V69.9C115.8 69.9 116 69.9 116.2 69.8C116.3 69.8 116.4 69.7 116.5 69.5C116.5 69.4 116.6 69.2 116.6 68.9V63.4C116.6 63.1 116.6 62.9 116.5 62.8C116.5 62.7 116.4 62.6 116.2 62.5C116.1 62.5 115.9 62.4 115.6 62.4V62.1ZM118.4 62.3C118.1 62.3 117.8 62.4 117.7 62.5C117.6 62.6 117.5 62.9 117.5 63.3V68.8C117.5 69.1 117.5 69.3 117.6 69.4C117.6 69.5 117.7 69.6 117.8 69.7C117.9 69.7 118.1 69.8 118.3 69.8C119 69.8 119.5 69.6 119.9 69.3C120.2 69 120.4 68.5 120.4 67.9C120.4 67.3 120.2 66.9 119.9 66.6C119.6 66.3 119.1 66.1 118.4 66.1H117.3V65.9H118.3C118.7 65.9 119.1 65.8 119.3 65.7C119.5 65.5 119.7 65.3 119.8 65C119.9 64.7 119.9 64.4 119.9 64.1C119.9 63.6 119.8 63.1 119.5 62.9C119.3 62.4 118.9 62.3 118.4 62.3Z" fill="black"/>
<path d="M134.7 61.9C135.4 61.9 136 62.1 136.5 62.4C137 62.7 137.4 63.2 137.7 63.8C138 64.4 138.1 65.1 138.1 66C138.1 66.8 137.9 67.5 137.7 68.2C137.4 68.8 137 69.3 136.5 69.6C136 69.9 135.4 70.1 134.7 70.1C134 70.1 133.4 69.9 132.9 69.6C132.4 69.3 132 68.8 131.7 68.2C131.4 67.6 131.3 66.9 131.3 66C131.3 65.2 131.5 64.5 131.8 63.8C132.1 63.2 132.5 62.7 133 62.4C133.4 62.1 134 61.9 134.7 61.9ZM134.6 62.1C134.1 62.1 133.7 62.3 133.3 62.6C132.9 62.9 132.7 63.4 132.5 64C132.3 64.6 132.2 65.3 132.2 66C132.2 66.8 132.3 67.5 132.5 68C132.7 68.6 133 69 133.4 69.3C133.8 69.6 134.2 69.8 134.6 69.8C135.1 69.8 135.5 69.6 135.9 69.3C136.3 69 136.5 68.5 136.7 67.9C136.9 67.3 137 66.6 137 65.9C137 65.1 136.9 64.4 136.7 63.9C136.5 63.3 136.2 62.9 135.8 62.6C135.5 62.3 135.1 62.1 134.6 62.1Z" fill="black"/>
<path d="M150.5 62.1V62.3C150.2 62.3 150.1 62.3 149.9 62.4C149.8 62.4 149.7 62.5 149.6 62.7C149.6 62.8 149.5 63 149.5 63.3V68.8C149.5 69.1 149.5 69.3 149.6 69.4C149.6 69.5 149.7 69.6 149.9 69.7C150 69.7 150.2 69.8 150.5 69.8V70C150.3 70 150.1 70 149.9 70C149.6 70 149.4 70 149.1 70C148.8 70 148.5 70 148.3 70C148 70 147.8 70 147.7 70V69.8C148 69.8 148.1 69.8 148.3 69.7C148.4 69.7 148.5 69.6 148.6 69.4C148.6 69.3 148.7 69.1 148.7 68.8V63.3C148.7 63 148.7 62.8 148.6 62.7C148.6 62.6 148.5 62.5 148.3 62.4C148.2 62.4 148 62.3 147.7 62.3V62.1C147.9 62.1 148.1 62.1 148.3 62.1C148.5 62.1 148.8 62.1 149.1 62.1C149.4 62.1 149.6 62.1 149.9 62.1C150.2 62.1 150.4 62.1 150.5 62.1ZM150.4 65.7C150.8 65.7 151.2 65.7 151.5 65.8C151.8 65.9 152.1 66 152.4 66.3C152.6 66.5 152.8 66.9 152.9 67.3L153.2 68.7C153.3 69 153.4 69.3 153.4 69.4C153.5 69.5 153.6 69.6 153.7 69.6C153.8 69.6 153.9 69.6 154 69.5C154.1 69.4 154.2 69.3 154.3 69.2L154.5 69.3C154.4 69.5 154.2 69.7 154 69.8C153.8 69.9 153.6 70 153.3 70C153 70 152.8 69.9 152.6 69.8C152.4 69.6 152.2 69.3 152.1 68.8L151.8 67.4C151.7 67.1 151.7 66.8 151.6 66.6C151.5 66.4 151.4 66.2 151.2 66.1C151 66 150.7 65.9 150.3 65.9H149.4V65.7H150.4ZM149.6 65.9V65.7C149.9 65.7 150.2 65.6 150.4 65.5C150.6 65.4 150.8 65.2 150.9 65.1L152 63.8C152.2 63.5 152.4 63.2 152.5 63C152.6 62.8 152.6 62.6 152.5 62.5C152.4 62.4 152.2 62.3 151.9 62.3V62.1C152 62.1 152.2 62.1 152.3 62.1C152.4 62.1 152.6 62.1 152.7 62.1C152.8 62.1 153 62.1 153.1 62.1C153.3 62.1 153.5 62.1 153.6 62.1C153.7 62.1 153.9 62.1 154 62.1V62.3C153.8 62.3 153.5 62.4 153.3 62.5C153.1 62.6 152.9 62.8 152.7 63.1L150.5 66H149.6V65.9Z" fill="black"/>
<path d="M166.9 62L169.6 69C169.7 69.3 169.8 69.5 170 69.6C170.1 69.7 170.3 69.7 170.4 69.7V69.9C170.3 69.9 170.1 69.9 169.9 69.9C169.7 69.9 169.5 69.9 169.3 69.9C169 69.9 168.7 69.9 168.5 69.9C168.2 69.9 168 69.9 167.9 69.9V69.7C168.3 69.7 168.5 69.6 168.6 69.5C168.7 69.4 168.7 69.1 168.5 68.8L166.4 63.3L166.6 63.2L164.7 68.2C164.6 68.5 164.5 68.7 164.5 68.9C164.5 69.1 164.5 69.3 164.6 69.4C164.7 69.5 164.8 69.6 164.9 69.7C165.1 69.8 165.2 69.8 165.5 69.8V70C165.3 70 165.1 70 164.9 70C164.7 70 164.5 70 164.3 70C164.1 70 164 70 163.8 70C163.7 70 163.6 70 163.4 70V69.8C163.5 69.8 163.7 69.7 163.9 69.5C164.1 69.4 164.2 69.1 164.3 68.8L166.9 62.1C166.7 62 166.8 62 166.9 62C166.8 62 166.8 62 166.9 62ZM168.2 66.7V66.9H164.9L165 66.7H168.2Z" fill="black"/>
<path d="M184.8 62.1C184.8 62.4 184.8 62.7 184.7 62.9C184.7 63.2 184.7 63.4 184.7 63.5C184.7 63.7 184.7 63.8 184.7 64C184.7 64.2 184.7 64.3 184.7 64.4H184.4C184.3 63.9 184.3 63.5 184.2 63.2C184.1 62.9 184 62.7 183.7 62.6C183.5 62.5 183.1 62.4 182.7 62.4H182.1V68.7C182.1 69 182.1 69.2 182.2 69.4C182.3 69.5 182.4 69.6 182.5 69.7C182.7 69.8 182.9 69.8 183.2 69.8V70C183 70 182.8 70 182.5 70C182.2 70 181.9 70 181.6 70C181.3 70 181 70 180.7 70C180.4 70 180.2 70 180 70V69.8C180.3 69.8 180.5 69.8 180.7 69.7C180.9 69.6 181 69.5 181 69.4C181.1 69.3 181.1 69 181.1 68.7V62.4H180.5C180 62.4 179.7 62.5 179.5 62.6C179.3 62.7 179.1 62.9 179 63.2C178.9 63.5 178.8 63.9 178.8 64.4H178.5C178.5 64.3 178.5 64.1 178.5 64C178.5 63.8 178.5 63.7 178.5 63.5C178.5 63.4 178.5 63.2 178.5 62.9C178.5 62.6 178.5 62.4 178.4 62.1C178.7 62.1 179 62.1 179.4 62.1C179.8 62.1 180.1 62.1 180.5 62.1C180.9 62.1 181.2 62.1 181.5 62.1C181.8 62.1 182.1 62.1 182.5 62.1C182.9 62.1 183.2 62.1 183.6 62.1C184.2 62.1 184.5 62.1 184.8 62.1Z" fill="black"/>
<path d="M116.3 38.6C116.3 36.7 116.2 35.2 116 34.2C115.8 33.2 115.5 32.4 115 31.9C114.5 31.4 113.9 31.1 113.1 31.1C112.4 31 111.1 31 110 31H106.3V31.4H107.2V55H106.3V55.4H110.8V55H110.1V50.5V47.6C111.2 47.6 112.5 47.6 113.2 47.5C114 47.4 114.6 47.1 115.1 46.7C115.6 46.2 115.9 45.5 116.1 44.4C116.3 43.4 116.4 41.9 116.4 40C116.4 39.7 116.4 39.5 116.4 39.3C116.3 39 116.3 38.8 116.3 38.6ZM113.6 39.3C113.6 39.4 113.6 39.6 113.6 39.7C113.6 39.8 113.6 39.9 113.6 40C113.6 41.9 113.5 43.3 113.4 44.3C113.2 45.3 113 46 112.7 46.4C112.4 46.8 112.1 47.1 111.6 47.1C111.3 47.1 110.6 47.2 110.1 47.2V31.3C110.6 31.3 111.3 31.3 111.7 31.4C112.1 31.4 112.5 31.7 112.8 32.1C113.1 32.5 113.3 33.3 113.5 34.2C113.7 35.2 113.7 36.6 113.7 38.5C113.7 38.6 113.7 38.7 113.7 38.8C113.6 39 113.6 39.1 113.6 39.3Z" fill="black"/>
<path d="M95.5 1.80005C95.5 3.20005 95.5 4.40005 95.5 5.60005C95.5 6.70005 95.5 8.00005 95.5 9.40005C95.5 10.8 95.5 12.3 95.5 13.8C95.5 15.3 95.5 16.8001 95.5 18.2001C95.5 19.6001 95.5 20.9 95.5 22.1C95.5 23.2 95.5 24.2 95.5 24.9C95.5 25.6 95.5 26 95.5 26H97.5V27.9H97.1V26.4H84.4V27.9H84V26H85.7C86.3 25 86.8 23.7 87.2 22.3C87.6 21.1 88 19.6 88.3 17.8C88.6 16 88.8 13.9 88.8 11.6V1.80005H95.5ZM89.3 2.30005V11.6C89.3 13.9 89.1 16 88.8 17.8C88.5 19.6 88.1 21.1 87.8 22.3C87.4 23.8 86.9 25 86.3 26H92.8V2.30005H89.3Z" fill="black"/>
<path d="M105.5 26.3L100.9 5.00005L101 26H101.8V26.4H99.5V26H100.4V2.30005H99.5V1.80005H103.2L107 19.1L112.2 1.80005H115.3V2.20005H114.4V25.9H115.2V26.3H110.5V26H111.5V5.90005L105.5 26.3Z" fill="black"/>
<path d="M142.9 1.80005V3.50005H142.4V2.30005H139V26H139.7V26.4H135.2V26H136.1V2.30005H132.8V3.60005H132.3V1.80005H142.9Z" fill="black"/>
<path d="M155.2 9.50002C155.2 7.60002 155.1 6.10002 154.9 5.10002C154.7 4.10002 154.4 3.30002 153.9 2.80002C153.4 2.30002 152.8 2.00002 152 2.00002C151.3 1.90002 150 1.90002 148.9 1.90002H145.2V2.30002H146.1V26H145.2V26.4H149.7V26H149V21.5V18.6C150.1 18.6 151.4 18.6 152.1 18.5C152.9 18.4 153.5 18.1 154 17.7C154.5 17.2 154.8 16.5 155 15.4C155.2 14.4 155.3 12.9 155.3 11C155.3 10.7 155.3 10.5 155.3 10.3C155.2 10 155.2 9.80002 155.2 9.50002ZM152.5 10.2C152.5 10.3 152.5 10.5 152.5 10.6C152.5 10.7 152.5 10.8 152.5 10.9C152.5 12.8 152.4 14.2 152.3 15.2C152.1 16.2 151.9 16.9 151.6 17.3C151.3 17.7 151 18 150.5 18C150.2 18 149.5 18.1 149 18.1V2.20002C149.5 2.20002 150.2 2.20002 150.6 2.30002C151 2.30002 151.4 2.60002 151.7 3.00002C152 3.40002 152.2 4.20002 152.4 5.10002C152.6 6.10002 152.6 7.50002 152.6 9.40002C152.6 9.50002 152.6 9.60002 152.6 9.70002C152.5 10 152.5 10.1 152.5 10.2Z" fill="black"/>
<path d="M129.9 31.3V30.9H126.2C125.1 30.9 124 30.9 123.3 31C122.5 31.1 121.7 31.4 121.3 31.9C120.8 32.4 120.4 33.1 120.3 34.2C120.2 34.9 120.3 41 120.3 41C120.4 41.9 120.6 42.6 121.3 43.3C121.8 43.8 122.4 44.1 123.2 44.1H123.3C122.4 44.2 121.2 44.6 120.6 45.4C120.3 45.8 120.2 46.4 120.2 47.1C120.2 47.8 120.1 51.5 120.1 52.2C120.1 52.9 120.1 53.5 120 53.9C119.9 54.3 119.8 54.6 119.6 54.7C119.4 54.8 119.1 54.9 118.6 54.9V55.4C119.7 55.4 120.6 55.3 121.1 55.1C121.7 54.9 122.1 54.6 122.3 54.1C122.5 53.6 122.7 53 122.7 52.3C122.7 51.5 122.7 48.4 122.7 47.2C122.7 44.4 124.4 44 125.2 44C125.5 44 125.8 44 126 44V54.8H125.3V55.3H129.8V55H129V31.3H129.9ZM124.7 43.7C123.4 43.6 123 42.4 123 40.8V34.2C122.9 32 124.2 31.3 124.7 31.3H126.2V43.6L124.7 43.7Z" fill="black"/>
<path d="M184.8 41.9001C184.7 40.8001 184.3 40.1 183.8 39.6C183.4 39.2 182.9 39 182.3 38.8C183.1 38.6 184.1 38.1 184.2 36.6V33.8C184.2 32.6 183.5 31 180.5 30.8H175.4V31.3H176.3V55H175.4V55.5H178.9H179.2C180.2 55.5 181.4 55.5001 182 55.4001C182.8 55.3001 183.4 55 183.9 54.6C184.6 54 184.8 53.3 184.9 52.3C184.9 52.2 184.9 42.6001 184.8 41.9001ZM179.2 31.4C179.7 31.4 180.1 31.4 180.5 31.4C180.9 31.4 182.1 31.7 182.2 33.8V36.5C182.2 38.4 180.7 38.6 180.3 38.6H179.2V31.4ZM180.5 55H179.3V39.2001H180.5C181 39.2001 182.3 39.9 182.2 42.1L182.3 52.2001C182.2 53.7001 181.7 54.9 180.5 55Z" fill="black"/>
<path d="M181.2 0H176.3V1H181.2V0Z" fill="black"/>
<path d="M184.9 1.80005H180.4V2.30005H181.3L176.4 24.3V2.30005H177.1V1.80005H172.6V2.30005H173.5V18.2001V25.5V26H172.6V26.4H177.1V26H176.4V25.6V26L181.3 4.10005V26H180.4V26.4H184.9V26H184.2L184.1 2.30005H184.9V1.80005Z" fill="black"/>
<path d="M170 1.80005H165.5V2.30005H166.4L161.5 24.3V2.30005H162.2V1.80005H157.7V2.30005H158.6V18.2001V25.5V26H157.7V26.4H162.2V26H161.5V25.6V26L166.4 4.10005V26H165.5V26.4H170V26H169.3V2.30005H170V1.80005Z" fill="black"/>
<path d="M130.4 1.80005H125.9V2.30005H126.8L121.9 24.3L121.8 2.30005H122.6V1.80005H118.1V2.30005H119V18.2001V25.5V26H118.1V26.4H122.6V26H121.9V25.6V26L126.8 4.10005V26H125.9V26.4H130.4V26H129.7L129.6 2.30005H130.4V1.80005Z" fill="black"/>
<path d="M144.7 30.9H140.2V31.3H141.1V31.4L136.2 53.3L136.1 31.3H136.9V30.9H132.4V31.3H133.3V47.2V54.6V55H132.4V55.5H136.9V55H136.2V54.7V55L141.1 33.2V55H140.2V55.5H144.7V55H144L143.9 31.3H144.7V30.9Z" fill="black"/>
</g>
<defs>
<clipPath id="clip0_47_5">
<rect width="184.9" height="71.7" fill="white"/>
</clipPath>
</defs>
</svg>
